<svg width="640" height="480" viewBox="0 0 640 480" fill="none" xmlns="http://www.w3.org/2000/svg">
  <rect width="640" height="480" rx="40" fill="#F5F5F5"/>
  <rect x="86" y="138" width="468" height="188" rx="26" fill="#111111"/>
  <rect x="108" y="160" width="424" height="144" rx="18" fill="#1F1F23"/>
  <g fill="#E60000" fill-opacity="0.88">
    <rect x="128" y="180" width="42" height="30" rx="8"/>
    <rect x="182" y="180" width="42" height="30" rx="8"/>
    <rect x="236" y="180" width="42" height="30" rx="8"/>
    <rect x="290" y="180" width="42" height="30" rx="8"/>
    <rect x="344" y="180" width="42" height="30" rx="8"/>
    <rect x="398" y="180" width="42" height="30" rx="8"/>
    <rect x="452" y="180" width="42" height="30" rx="8"/>
    <rect x="128" y="220" width="54" height="30" rx="8"/>
    <rect x="194" y="220" width="42" height="30" rx="8"/>
    <rect x="248" y="220" width="42" height="30" rx="8"/>
    <rect x="302" y="220" width="42" height="30" rx="8"/>
    <rect x="356" y="220" width="42" height="30" rx="8"/>
    <rect x="410" y="220" width="84" height="30" rx="8"/>
    <rect x="128" y="260" width="112" height="28" rx="8"/>
    <rect x="252" y="260" width="172" height="28" rx="8"/>
    <rect x="436" y="260" width="58" height="28" rx="8"/>
  </g>
  <text x="320" y="414" fill="#111111" font-family="Arial, sans-serif" font-size="24" font-weight="700" text-anchor="middle">Acer Keyboard + Mouse</text>
</svg>
